<?xml version="1.0" standalone="no"?>
<!DOCTYPE svg PUBLIC "-//W3C//DTD SVG 20010904//EN"
 "http://www.w3.org/TR/2001/REC-SVG-20010904/DTD/svg10.dtd">
<svg version="1.0" xmlns="http://www.w3.org/2000/svg"
 width="260.000000pt" height="260.000000pt" viewBox="0 0 260.000000 260.000000"
 preserveAspectRatio="xMidYMid meet">
<metadata>
Created by potrace 1.11, written by Peter Selinger 2001-2013
</metadata>
<g transform="translate(0.000000,260.000000) scale(0.100000,-0.100000)"
fill="#000000" stroke="none">
<path d="M759 2488 c-1 -2 -2 -85 -3 -185 -1 -157 1 -183 14 -184 8 0 183 -1
388 -1 l372 -1 0 -51 c3 -368 -1 -1298 -5 -1321 -18 -101 -68 -186 -142 -243
-61 -46 -123 -68 -217 -78 -118 -12 -269 46 -406 156 -41 33 -78 60 -81 60 -7
0 -229 -307 -229 -316 0 -10 50 -55 116 -105 102 -77 263 -151 379 -173 17 -4
41 -9 55 -12 53 -12 267 -10 335 3 324 61 540 282 590 603 4 25 10 54 12 65 3
11 6 417 7 903 l2 882 -593 0 c-326 0 -594 -1 -594 -2z"/>
</g>
</svg>
