<?xml version="1.0" encoding="iso-8859-1"?>
<!-- Generator: Adobe Illustrator 19.0.0, SVG Export Plug-In . SVG Version: 6.00 Build 0)  -->
<svg xmlns="http://www.w3.org/2000/svg" xmlns:xlink="http://www.w3.org/1999/xlink" version="1.1" id="Capa_1" x="0px" y="0px" viewBox="0 0 368 368" style="enable-background:new 0 0 368 368;" xml:space="preserve" width="512px" height="512px">
<g>
	<g>
		<path d="M248,0H120c-13.232,0-24,10.768-24,24v128c0,13.232,10.768,24,24,24h24v40c0,4.424,3.584,8,8,8h24v40c0,4.424,3.584,8,8,8    c22.056,0,40,17.944,40,40c0,22.056-17.944,40-40,40c-22.056,0-40-17.944-40-40c0-4.424-3.584-8-8-8s-8,3.576-8,8    c0,30.872,25.12,56,56,56s56-25.128,56-56c0-28.168-20.896-51.536-48-55.432V224h24c4.416,0,8-3.576,8-8v-40h24    c13.232,0,24-10.768,24-24V24C272,10.768,261.232,0,248,0z M208,208h-48v-32h48V208z M256,152c0,4.408-3.592,8-8,8h-24v-56    c0-4.416-3.584-8-8-8c-4.416,0-8,3.584-8,8v56h-88c-4.408,0-8-3.592-8-8V24c0-4.408,3.584-8,8-8h88v40c0,4.416,3.584,8,8,8    c4.416,0,8-3.584,8-8V16h24c4.408,0,8,3.592,8,8V152z" fill="#798689"/>
	</g>
</g>
<g>
</g>
<g>
</g>
<g>
</g>
<g>
</g>
<g>
</g>
<g>
</g>
<g>
</g>
<g>
</g>
<g>
</g>
<g>
</g>
<g>
</g>
<g>
</g>
<g>
</g>
<g>
</g>
<g>
</g>
</svg>
